<svg width="204" height="210" viewBox="0 0 204 210" fill="none" xmlns="http://www.w3.org/2000/svg">
<g filter="url(#filter0_d_2005_1242)">
<path d="M4 200.999H77.3255C77.4527 200.999 77.559 200.902 77.5711 200.775L79.3535 181.65C79.371 181.462 79.1799 181.325 79.0076 181.401C76.0451 182.721 56.951 191.182 55.5138 190.724C53.9548 190.228 23.2266 156.736 23.014 156.146C22.8229 155.615 22.8229 150.16 22.8242 149.063C22.8242 148.95 22.7489 148.852 22.6392 148.825C21.2303 148.466 12.2632 146.131 12.2195 144.738C12.1724 143.226 13.613 142.919 12.2666 142.116C10.9202 141.313 9.952 139.07 11.1093 138.574C12.2666 138.078 9.66873 134.937 11.0857 134.252C12.5028 133.567 7.92068 131.441 11.1799 128.678C14.4392 125.914 27.8787 129.622 28.9653 131.701C30.052 133.779 28.4223 134.771 26.2961 135.055C24.1706 135.338 14.0611 132.882 15.431 133.543C16.8009 134.204 29.9571 138.007 31.6809 140.747C33.4054 143.487 31.4447 144.833 29.6731 144.243C27.9015 143.652 26.2248 141.975 22.3041 141.054C18.3834 140.133 15.1006 140.227 16.1395 139.59C17.1791 138.952 22.9184 139.637 27.2166 142.211C31.5154 144.786 31.6809 148.116 29.7909 148.258C27.9015 148.4 15.2413 143.817 16.4934 143.699C17.7449 143.581 25.9644 145.66 27.8544 147.336C29.7438 149.013 22.9891 148.541 22.8236 148.47C22.6708 148.405 20.3993 114.903 20.0561 109.831C20.0407 109.606 20.3112 109.48 20.4733 109.637C24.4673 113.505 53.0929 141.219 53.2685 141.219C53.4576 141.219 53.1266 189.449 54.9217 189.827C56.6509 190.191 54.084 144.696 53.8936 141.364C53.8869 141.251 53.9589 141.148 54.0665 141.115L120.47 120.479C120.631 120.429 120.794 120.551 120.79 120.719C120.691 124.966 119.698 167.288 119.496 167.625C119.3 167.952 85.6883 179.237 80.6002 180.943C80.3809 181.016 80.1898 180.776 80.3123 180.579C82.2857 177.415 92.0999 162.469 99.5853 165.641C107.947 169.183 93.7753 139.352 105.254 144.596C116.248 149.618 120.492 122.191 120.83 119.866C120.845 119.771 120.801 119.676 120.721 119.624L80.4246 93.3297C80.3681 93.2927 80.2995 93.2806 80.2335 93.2961C77.4708 93.9501 19.6322 107.651 21.4772 108.388C23.3053 109.119 76.0639 96.41 79.4995 95.5817C79.6038 95.5568 79.6791 95.4673 79.6865 95.3604C79.8399 93.1709 81.5779 71.5416 90.6337 66.2517C99.5806 61.0257 115.42 60.4504 117.363 60.3986C117.476 60.3959 117.577 60.4699 117.607 60.5802C117.895 61.6501 119.575 67.0254 124.592 68.5965C124.868 68.6827 124.791 69.0897 124.502 69.0776C117.745 68.7863 117.054 62.5665 117.701 56.1899C118.41 49.1984 114.819 46.3172 115.859 41.357C116.898 36.3968 114.3 30.9171 115.67 30.6809C117.04 30.4448 123.511 35.8773 132.864 34.1764C142.218 32.4761 148.359 28.6025 148.075 28.3664C147.792 28.1302 126.015 16.1313 118.22 16.8405C110.426 17.549 99.703 25.2491 103.057 26.0989C106.411 26.9493 112.363 27.6107 118.551 30.3028C124.74 32.9955 132.251 32.7123 138.533 30.2557C144.815 27.7991 148.878 28.2715 155.586 29.7363C162.294 31.2004 163.948 15.0453 156.531 7.81761C149.116 0.591235 135.558 -0.023074 126.867 2.00825C118.175 4.03958 118.364 14.9518 119.592 14.7156C120.82 14.4795 132.299 17.4555 139.715 21.0458C147.131 24.6361 149.258 25.3917 149.258 31.0133C149.258 36.635 148.927 38.9496 146.896 41.8307C144.865 44.7125 136.456 57.325 136.74 57.7973C137.024 58.2697 143.211 61.6238 144.817 61.1515C146.424 60.6791 147.415 58.6949 147.179 54.5381C146.943 50.3812 148.502 45.1377 150.627 45.752C152.753 46.3663 151.667 54.5858 153.367 54.1135C155.068 53.6412 160.217 44.1937 160.217 44.0047C160.217 43.8156 154.312 37.1551 154.123 36.2575C153.946 35.4178 155.093 33.8332 156.518 33.8265C156.67 33.8258 156.783 33.6872 156.757 33.5379C156.448 31.7959 156.542 30.4468 156.721 30.4468C156.91 30.4468 157.052 33.659 157.761 33.7061C157.761 33.7061 159.06 33.8003 158.753 35.7374C158.445 37.6745 157.548 39.1386 157.525 39.0438C157.501 38.9496 155.234 35.3592 153.368 35.1702C151.502 34.9811 149.652 39.5793 146.691 44.1137C143.973 48.2772 138.932 56.6226 138.125 57.9608C138.063 58.0651 137.934 58.1075 137.822 58.0611C137.127 57.7758 134.735 56.8944 133.559 57.7502C132.173 58.7582 130.221 61.2141 131.291 61.5296C132.362 61.8445 136.109 62.6317 135.795 62.0336C135.48 61.4354 132.015 60.3643 130.283 61.9703C128.551 63.5764 127.165 68.0165 128.394 66.946C129.622 65.8755 134.063 66.3795 133.401 65.5606C132.74 64.7418 128.52 65.2141 127.89 67.6707C127.26 70.1273 127.386 75.8269 128.835 77.3072C130.283 78.7875 132.551 76.52 131.795 75.0397C131.04 73.5595 130.976 71.2294 132.519 71.1661C134.062 71.1029 134.976 74.9765 134.314 75.7953C133.653 76.6142 131.732 76.1102 132.551 75.7953C133.37 75.4804 134.755 75.1339 134.818 77.433C134.881 79.7321 134.519 81.8422 137.731 86.5656C140.943 91.2896 148.052 98.8242 153.154 109.665C158.256 120.506 164.349 129.859 170.585 136.095C176.82 142.33 181.851 149.275 187.945 144.385C194.039 139.496 194.18 133.828 194.605 129.293C195.031 124.758 195.739 120.223 191.842 116.821C187.945 113.42 181.072 114.909 182.135 116.184C183.198 117.459 187.804 124.191 188.654 123.269C189.505 122.348 182.277 114.554 177.459 111.436C172.64 108.318 154.004 90.746 150.745 83.235C147.486 75.724 149.651 67.7642 150.375 64.363C151.099 60.9617 152.454 59.135 153.336 57.8128C154.218 56.49 152.674 54.349 153.871 54.8213C155.068 55.2937 156.17 62.6627 157.241 65.3083C158.311 67.954 151.51 81.968 150.722 80.582C149.934 79.1966 150.344 66.8512 151.477 65.8439C152.611 64.836 154.028 63.1983 153.934 60.9315C153.84 58.664 156.705 64.2695 161.051 67.7656C165.397 71.261 180.93 78.2761 182.419 80.189C183.907 82.1019 175.829 96.9113 174.554 95.6362C173.278 94.3605 181.214 79.4805 183.34 80.473C185.465 81.4647 190.496 92.5896 192.268 100.454C194.04 108.319 193.544 116.468 192.693 114.768C191.843 113.068 187.546 110.438 184.261 112.288C180.976 114.137 172.357 104.848 172.782 104.777C173.208 104.706 183.127 99.9586 181.285 98.0457C179.443 96.1328 172.074 104.494 168.177 111.65C164.28 118.806 159.697 149.961 156.863 157.707C154.029 165.454 133.811 182.082 133.434 176.035C133.055 169.989 156.863 153.172 157.997 159.218C159.075 164.966 158.103 197.541 158.005 200.746C158.001 200.886 158.113 201 158.251 201H199.189" stroke="#03373D" stroke-width="1.5" stroke-miterlimit="10"/>
</g>
<defs>
<filter id="filter0_d_2005_1242" x="0" y="0.25" width="203.189" height="209.5" filterUnits="userSpaceOnUse" color-interpolation-filters="sRGB">
<feFlood flood-opacity="0" result="BackgroundImageFix"/>
<feColorMatrix in="SourceAlpha" type="matrix" values="0 0 0 0 0 0 0 0 0 0 0 0 0 0 0 0 0 0 127 0" result="hardAlpha"/>
<feOffset dy="4"/>
<feGaussianBlur stdDeviation="2"/>
<feComposite in2="hardAlpha" operator="out"/>
<feColorMatrix type="matrix" values="0 0 0 0 0 0 0 0 0 0 0 0 0 0 0 0 0 0 0.25 0"/>
<feBlend mode="normal" in2="BackgroundImageFix" result="effect1_dropShadow_2005_1242"/>
<feBlend mode="normal" in="SourceGraphic" in2="effect1_dropShadow_2005_1242" result="shape"/>
</filter>
</defs>
</svg>
